// **********************************************************************
// Converted with SF22SFZ Converter v1.616
// Copyright Nov 16 2012 , Plogue Art et Technologie, Inc
// **********************************************************************
// Conversion Date: Sat Jul 06 00:17:09 2013
// **********************************************************************
// Parent file    : WspMandolinTremolo.sf2
// Soundfont      : 2.1
// Internal Name  : WspMandolinTremolo2.sf2
// Optimised for  : E-mu 10K1
// Intendend for  : SynthFont Viena
// Editor Used    : SynthFont Viena
// Sound Engineer : SynthFont Viena
// Creation Date  : 2011/06/26 16:02:00
// Copyright      : SynthFont Viena

<global>
sample=Mandolin_T.wav
loop_mode=loop_continuous
//8.4.2 MIDI Note-On Velocity to Filter Cutoff
//8.4.8 MIDI Continuous Controller 91 to Reverb Effects Send
//8.4.9 MIDI Continuous Controller 93 to Chorus Effects Send
//8.4.10 MIDI Pitch Wheel to Initial Pitch Controlled by MIDI Pitch Wheel Sensitivity
lfo06_wave=0
lfo06_pitch=0
lfo06_pitch_oncc129=50
lfo06_pitch_oncc1=50
lfo06_freq=8.176
amplitude_oncc11=100
amplitude_curvecc11=7
volume=-6.0

<region>
key=57
region_label=t_2a
pitch_keycenter=57
tune=0
offset=0
end=753840
loop_start=0
loop_end=753840
//loop_end=4294967295

<region>
key=58
region_label=t_2as
pitch_keycenter=58
tune=0
offset=753872
end=1507912
//bad loop! loop_start=753872 loop_end=753871

<region>
key=59
region_label=t_2b
pitch_keycenter=59
tune=0
offset=1507944
end=2239811
//bad loop! loop_start=1507944 loop_end=1507943

<region>
lokey=0
hikey=55
region_label=t_2g
pitch_keycenter=55
tune=0
offset=2239843
end=3086381
loop_start=2239843
loop_end=3086381

<region>
key=56
region_label=t_2gs
pitch_keycenter=56
tune=0
offset=3086413
end=3867985
loop_start=3086413
loop_end=3867985

<region>
key=69
region_label=t_3a
pitch_keycenter=69
tune=0
offset=3868017
end=4320071
loop_start=3868017
loop_end=4320071

<region>
key=70
region_label=t_3as
pitch_keycenter=70
tune=0
offset=4320103
end=4947351
loop_start=4320103
loop_end=4947351

<region>
key=71
region_label=t_3b
pitch_keycenter=71
tune=0
offset=4947383
end=5899487
loop_start=4947383
loop_end=5899487

<region>
key=60
region_label=t_3c
pitch_keycenter=60
tune=0
offset=5899519
end=6584720
loop_start=5899519
loop_end=6584720

<region>
key=61
region_label=t_3cs
pitch_keycenter=61
tune=0
offset=6584752
end=7627146
loop_start=6584752
loop_end=7627146

<region>
key=62
region_label=t_3d
pitch_keycenter=62
tune=0
offset=7627178
end=8132120
loop_start=7627178
loop_end=8132120

<region>
key=63
region_label=t_3ds
pitch_keycenter=63
tune=0
offset=8132152
end=8678411
loop_start=8132152
loop_end=8678411

<region>
key=64
region_label=t_3e
pitch_keycenter=64
tune=0
offset=8678443
end=9564073
loop_start=8678443
loop_end=9564073

<region>
lokey=65
hikey=66
region_label=t_3fs
pitch_keycenter=66
tune=0
offset=10653501
end=11700376
loop_start=10653501
loop_end=11700376

<region>
key=67
region_label=t_3g
pitch_keycenter=67
tune=0
offset=11700408
end=12565503
loop_start=11700408
loop_end=12565503

<region>
key=68
region_label=t_3gs
pitch_keycenter=68
tune=0
offset=12565535
end=13018996
loop_start=12565535
loop_end=13018996

<region>
key=81
region_label=t_4a
pitch_keycenter=81
tune=0
offset=13019028
end=13813475
loop_start=13019028
loop_end=13813475

<region>
key=82
region_label=t_4as
pitch_keycenter=82
tune=0
offset=13813507
end=15119651
loop_start=13813507
loop_end=15119651

<region>
key=83
region_label=t_4b
pitch_keycenter=83
tune=0
offset=15119683
end=16121345
loop_start=15119683
loop_end=16121345

<region>
key=72
region_label=t_4c
pitch_keycenter=72
tune=0
offset=16121377
end=16848740
loop_start=16121377
loop_end=16848740

<region>
key=73
region_label=t_4cs
pitch_keycenter=73
tune=0
offset=16848772
end=17522009
loop_start=16848772
loop_end=17522009

<region>
key=74
region_label=t_4d
pitch_keycenter=74
tune=0
offset=17522041
end=18040331
loop_start=17522041
loop_end=18040331

<region>
key=75
region_label=t_4ds
pitch_keycenter=75
tune=0
offset=18040363
end=18858612
loop_start=18040363
loop_end=18858612

<region>
key=76
region_label=t_4e
pitch_keycenter=76
tune=0
offset=18858644
end=19828854
loop_start=18858644
loop_end=19828854

<region>
key=77
region_label=t_4f
pitch_keycenter=77
tune=0
offset=19828886
end=20615529
loop_start=19828886
loop_end=20615529

<region>
key=78
region_label=t_4fs
pitch_keycenter=78
tune=0
offset=20615561
end=21734532
loop_start=20615561
loop_end=21734532

<region>
lokey=79
hikey=80
region_label=t_4gs
pitch_keycenter=80
tune=0
offset=22821136
end=24227260
loop_start=22821136
loop_end=24227260

<region>
key=93
region_label=t_5a
pitch_keycenter=93
tune=0
offset=24227292
end=24961684
loop_start=24227292
loop_end=24961684

<region>
key=94
region_label=t_5as
pitch_keycenter=94
tune=0
offset=24961716
end=25715930
loop_start=24961716
loop_end=25715930

<region>
key=95
region_label=t_5b
pitch_keycenter=95
tune=0
offset=25715962
end=26698516
loop_start=25715962
loop_end=26698516

<region>
key=84
region_label=t_5c
pitch_keycenter=84
tune=0
offset=26698548
end=28185828
loop_start=26698548
loop_end=28185828

<region>
key=85
region_label=t_5cs
pitch_keycenter=85
tune=0
offset=28185860
end=29033242
loop_start=28185860
loop_end=29033242

<region>
key=86
region_label=t_5d
pitch_keycenter=86
tune=0
offset=29033274
end=30181653
loop_start=29033274
loop_end=30181653

<region>
key=87
region_label=t_5ds
pitch_keycenter=87
tune=0
offset=30181685
end=31125447
loop_start=30181685
loop_end=31125447

<region>
key=88
region_label=t_5e
pitch_keycenter=88
tune=0
offset=31125479
end=32157777
loop_start=31125479
loop_end=32157777

<region>
key=89
region_label=t_5f
pitch_keycenter=89
tune=0
offset=32157809
end=33066778
loop_start=32157809
loop_end=33066778

<region>
key=90
region_label=t_5fs
pitch_keycenter=90
tune=0
offset=33066810
end=33788615
loop_start=33066810
loop_end=33788615

<region>
key=91
region_label=t_5g
pitch_keycenter=91
tune=0
offset=33788647
end=34495309
loop_start=33788647
loop_end=34495309

<region>
key=92
region_label=t_5gs
pitch_keycenter=92
tune=0
offset=34495341
end=35212156
loop_start=34495341
loop_end=35212156

<region>
lokey=96
hikey=127
region_label=t_6c
pitch_keycenter=96
tune=0
offset=35212188
end=36081993
loop_start=35212188
loop_end=36081993
